<?xml version="1.0" encoding="UTF-8"?><svg id="_图层_1" xmlns="http://www.w3.org/2000/svg" viewBox="0 0 425.58 200.06"><defs><style>.cls-1{fill:#fff;}</style></defs><path class="cls-1" d="m354.22,200.02h-1.44l-5.95-.64v-8.45c1.32.21,2.55.47,3.82.59,4.52.77,9.15.59,13.59-.55,2.55-.78,4.38-3,4.67-5.65.23-1.6.36-3.22.38-4.84-.97,1.11-2.05,2.13-3.23,3.02-1.29.83-2.74,1.41-4.25,1.7-3.5.67-7.12.48-10.53-.55-4.51-1.53-7.78-5.45-8.5-10.15-.87-4.48-1.04-9.06-.51-13.59.15-3.18,1.12-6.26,2.8-8.96,2.15-3.32,5.71-5.45,9.64-5.78,3.08-.42,6.22-.22,9.22.59,2.2.81,3.99,2.46,4.97,4.59v-4.25h10.36v37.72c.06,3.74-1.34,7.35-3.91,10.07-2.58,2.44-5.84,4.04-9.34,4.59-1.49.3-2.97.51-4.25.72l-7.56-.17Zm15.55-33.64c-.25-2.51-.3-4.59-.72-6.63-.33-2.44-2.03-4.47-4.38-5.22-1.83-.6-3.78-.77-5.69-.51-1.84.21-3.51,1.16-4.63,2.63-1.39,2.3-2.04,4.97-1.87,7.65-.08,2.49.08,4.98.47,7.43.2,2.78,2.12,5.14,4.8,5.9,2.14.62,4.4.62,6.54,0,2.29-.55,4.08-2.34,4.63-4.63.4-2.19.69-4.4.85-6.63Z"/><path class="cls-1" d="m425.41,185.67h-10.53v-25.44c.15-1.61-.48-3.19-1.7-4.25-.53-.4-1.14-.67-1.78-.81-2.86-.88-5.97-.46-8.5,1.15-1.61,1.04-2.58,2.84-2.55,4.76v24.68h-10.19v-38.65h10.19v4.25c.88-.94,1.83-1.81,2.85-2.59,1.94-1.26,4.15-2.03,6.46-2.25,2.84-.41,5.73-.23,8.5.51,3.61.85,6.34,3.81,6.88,7.48,0,.93.3,1.91.47,2.85l-.08,28.33Z"/><path class="cls-1" d="m151.06,177.17h-20.39v-24.76c-.76.76-1.36,1.27-1.87,1.83-5.13,5.53-11.04,10.28-17.54,14.1-4.49,2.54-9.25,4.56-14.19,6.03-7.92,2.34-16.17,3.35-24.42,2.97-16.54-.39-32.42-6.58-44.85-17.5-4.84-4.14-9.19-8.83-12.96-13.97-3.39-4.6-6.24-9.57-8.5-14.82-2.33-5.25-3.99-10.78-4.97-16.44-.68-3.82-1.11-7.68-1.27-11.55-.18-4.36-.11-8.73.21-13.08.34-3.5.89-6.98,1.66-10.41,1.03-5.01,2.64-9.89,4.8-14.53,2.65-6.02,6.14-11.64,10.36-16.69,2.67-3.23,5.5-6.33,8.5-9.26,4.34-4.07,9.16-7.59,14.36-10.49,5.76-3.25,11.98-5.64,18.43-7.09,3.39-.67,6.8-1.16,10.24-1.49,2.48-.31,4.98-.45,7.48-.42,9.69.01,19.29,1.98,28.2,5.78,6.17,2.59,11.91,6.13,16.99,10.49,3.61,3.11,7.06,6.42,10.32,9.9,3.71,4.13,6.91,8.67,9.56,13.55,2.47,4.3,4.45,8.86,5.9,13.59,1.25,4.18,2.2,8.43,2.85,12.74.64,4.83.98,9.7,1.02,14.57v75.57l.08,1.4Zm-20.47-78.75c-.25-3.1-.34-6.24-.76-9.39-.67-5.18-2.1-10.23-4.25-14.99-2.5-5.49-5.87-10.54-9.98-14.95-5.4-6.07-12.03-10.92-19.45-14.23-6.14-2.64-12.73-4.08-19.41-4.25-3.04,0-6.08.21-9.09.64-5.96.76-11.73,2.65-16.99,5.56-6.21,3.5-11.74,8.08-16.35,13.51-4.38,5.01-7.84,10.76-10.19,16.99-2.28,6.41-3.49,13.16-3.57,19.96,0,2.34.21,4.67.34,7.01.47,6.53,2.12,12.92,4.88,18.86,3.33,7.27,8.17,13.76,14.19,19.03,3.13,2.81,6.56,5.26,10.24,7.31,6.97,3.75,14.69,5.85,22.6,6.16,3.57.1,7.15-.06,10.7-.47,6.91-.83,13.55-3.17,19.45-6.84,5.24-3.15,9.94-7.14,13.89-11.81,9.15-10.62,14.11-24.21,13.93-38.23l-.17.13Z"/><path class="cls-1" d="m194.77,135.84h20.3c3.89-.01,7.73.83,11.26,2.46,3.5,1.79,6.21,4.82,7.6,8.5,1.24,3.05,1.9,6.31,1.95,9.6,0,2.17.34,4.25,0,6.54,0,4.83-1.25,9.59-3.61,13.8-2.56,4.18-6.81,7.04-11.64,7.86-2.8.57-5.64.9-8.5.98h-17.42l.04-49.74Zm10.96,40.69c3.65-.21,7.14-.25,10.58-.76,3.62-.41,6.57-3.07,7.35-6.63.43-1.82.75-3.66.98-5.52.49-3.37.32-6.81-.51-10.11-.49-3.99-3.49-7.21-7.43-7.99-1.1-.24-2.23-.4-3.36-.47h-7.6v31.47Z"/><path class="cls-1" d="m277.6,54.54V.09h10.19v20.13c1.76-2.55,4.47-4.28,7.52-4.8,4.72-1.13,9.7-.39,13.89,2.08,2.42,1.64,4.11,4.15,4.71,7.01.46,2.34.78,4.71.98,7.09.22,1.72.29,3.45.21,5.18.03,3.77-.69,7.51-2.12,11-1.65,3.68-5,6.32-8.96,7.05-3.18.7-6.47.7-9.64,0-3-.56-5.51-2.61-6.67-5.44l-.68,5.31-9.43-.17Zm26.97-19.28c-.25-2.21-.3-4.25-.72-6.58-.28-2.74-2.31-4.98-5.01-5.52-1.31-.17-2.64-.17-3.95,0-3.12-.1-5.89,1.99-6.67,5.01-1.25,4.29-1.35,8.83-.3,13.17.36,2.21,1.72,4.13,3.7,5.18,1.56.74,3.28,1.09,5.01,1.02,3.49.22,6.57-2.24,7.14-5.69.51-2.21.55-4.42.81-6.58Z"/><path class="cls-1" d="m322.2,120.47h-10.24v-54.5h10.24v20.26c.93-1.07,1.98-2.03,3.14-2.85,1.72-.98,3.58-1.69,5.52-2.08,3.06-.6,6.22-.46,9.22.38,3.64.81,6.37,3.82,6.84,7.52.35,2.11.5,4.24.47,6.37v24.85h-10.53v-24.85c0-.98-.16-1.96-.47-2.89-.53-1.89-2.29-3.17-4.25-3.1-2.28-.37-4.63-.03-6.71.98-2.06,1.08-3.31,3.24-3.23,5.56v24.34Z"/><path class="cls-1" d="m266.98,54.63h-9.47l-.89-4.25c-1.23.98-2.42,2.04-3.74,2.89-2.02,1.2-4.32,1.86-6.67,1.91-3.5.45-7.06-.15-10.24-1.7-2.86-1.59-4.73-4.51-4.97-7.77-.35-2.27-.21-4.59.42-6.8.99-3.32,3.74-5.82,7.14-6.5,2.39-.67,4.87-.98,7.35-.93h10.32c.76-4.97-1.23-7.26-5.61-7.39-3.57,0-7.09,0-10.75.3v-7.86c0-.3.55-.76.85-.81,1.23,0,2.46,0,3.7-.3s3.48-.25,5.22,0c3.73-.09,7.44.56,10.92,1.91,3.13,1.13,5.38,3.89,5.86,7.18.3,1.95.46,3.93.47,5.9v23.11l.08,1.1Zm-10.53-16.06c-3.99,0-7.77-.21-11.51,0-2.35.06-4.2,2-4.15,4.35.03,1.08.46,2.1,1.21,2.87.87.89,2.07,1.38,3.31,1.36,2.84.51,5.77-.03,8.24-1.53,1.2-.71,2.16-1.76,2.76-3.02.27-1.33.31-2.69.13-4.04Z"/><path class="cls-1" d="m242.55,105.05c-.14,3.7,2.47,6.93,6.12,7.56,3.25.72,6.61.72,9.85,0,2.51-.51,4.97-1.23,7.48-1.91v7.43c0,.3-.47.76-.85.89-1.78.67-3.61,1.2-5.48,1.57-3.52.48-7.07.71-10.62.68-3.47.09-6.89-.78-9.9-2.51-3.2-2.18-5.41-5.54-6.16-9.34-.92-4.18-1.13-8.49-.64-12.74.08-3.91,1.47-7.68,3.95-10.7,1.56-1.82,3.61-3.16,5.9-3.87,3.65-1.09,7.46-1.5,11.26-1.19,4.07-.06,8,1.46,10.96,4.25,1.71,1.9,2.77,4.3,3.02,6.84.34,2.59.42,5.22.51,7.82.02.91-.07,1.83-.25,2.72-.17.34-.48.59-.85.68-3.19,0-6.41.34-9.6.51l-11.51.89-3.19.42Zm0-7.31l15.76-1.23c.07-.64.07-1.28,0-1.91.01-1.78-.8-3.46-2.21-4.54-2.6-1.42-5.68-1.69-8.5-.76-3.74.85-5.01,4.08-5.01,8.45h-.04Z"/><path class="cls-1" d="m254.24,170.21c-.12,3.69,2.48,6.91,6.12,7.56,3.25.7,6.61.7,9.85,0,2.51-.51,4.97-1.23,7.48-1.91v7.39c-.1.43-.42.78-.85.89-1.77.71-3.6,1.24-5.48,1.57-3.52.49-7.07.74-10.62.72-3.43.1-6.82-.74-9.81-2.42-3.23-2.15-5.48-5.5-6.24-9.3-.91-4.18-1.14-8.49-.68-12.74.1-3.91,1.5-7.68,3.99-10.7,1.6-1.84,3.69-3.18,6.03-3.87,3.57-1.05,7.29-1.46,11-1.19,4.1-.11,8.08,1.42,11.04,4.25,1.74,1.88,2.81,4.29,3.06,6.84.34,2.59.38,5.22.51,7.82.02.9-.06,1.8-.25,2.68-.16.35-.47.62-.85.72-3.1.21-6.24.34-9.34.51l-11.85.72c-1.19.17-2.17.34-3.1.47Zm0-7.31l15.93-1.23c.04-.61.04-1.22,0-1.83.11-2.22-1.13-4.28-3.14-5.22-2.05-.76-4.29-.89-6.41-.38-1.37.23-2.66.79-3.78,1.61-2.59,1.74-2.59,4.38-2.89,7.05h.3Z"/><path class="cls-1" d="m214.27,120.47h-10.79v-40.18h-12.96v-9.64h37v9.43h-13.08l-.17,40.39Z"/><path class="cls-1" d="m195.36,54.54V4.89h10.92v40.27h19.88v9.51l-30.8-.13Z"/><path class="cls-1" d="m286.18,185.07v-8.79l2.76.59c3.36.86,6.82,1.23,10.28,1.1,1.2-.1,2.39-.36,3.53-.76,1.19-.42,1.87-2.55,1.61-4.25-.21-1.53-1.34-2.76-2.85-3.1-2.72-.81-5.48-1.53-8.2-2.38-3.58-.79-6.25-3.79-6.63-7.43-.66-3.49.14-7.1,2.21-9.98,1.69-1.79,3.91-2.98,6.33-3.4,3.62-.85,7.36-1.02,11.04-.51l6.54.81-.51,8.11c-2.24-.51-4.51-.88-6.8-1.1-2.33-.19-4.68-.19-7.01,0-1.19.19-2.05,1.22-2.04,2.42,0,1.44,0,2.89,1.57,3.44,2.38.76,4.88,1.36,7.22,2.25,2.09.74,4.11,1.66,6.03,2.76,1.43.98,2.36,2.53,2.55,4.25.74,2.97.74,6.08,0,9.05-1.13,3.93-4.55,6.78-8.62,7.18-2.8.52-5.65.76-8.5.72-3.44-.04-6.97-.72-10.53-.98Z"/><path class="cls-1" d="m303.64,111.16v8.07c0,.25-.47.68-.81.76-3.85,1.03-7.83,1.43-11.81,1.19-2.75-.06-5.47-.62-8.03-1.66-4.19-1.9-7.2-5.72-8.07-10.24-.85-4.12-1.06-8.35-.64-12.53.1-3.46,1.21-6.81,3.19-9.64,2-2.85,5.06-4.78,8.5-5.35,3.08-.5,6.19-.74,9.3-.72,2.39.12,4.76.43,7.09.93.37.14.64.46.72.85v7.9c-1.75-.44-3.52-.77-5.31-.98-3.2-.62-6.5-.23-9.47,1.1-1.67,1.08-2.79,2.83-3.06,4.8-1.02,3.99-.89,8.19.38,12.11.86,2.57,3.17,4.37,5.86,4.59,4.09.62,8.26.21,12.15-1.19Z"/><path class="cls-1" d="m322.88,185.63v-38.53h10.45v38.7l-10.45-.17Z"/><path class="cls-1" d="m120.22,19.67h28.54v28.42c-7.51-11.26-17.27-20.83-28.67-28.12l.13-.3Z"/><path class="cls-1" d="m328.06,141.36h-2.04c-2.04,0-3.31-.85-3.57-2.76-.23-1.75-.23-3.52,0-5.27.02-1.45,1.22-2.61,2.68-2.59h0c1.97-.13,3.94-.13,5.9,0,2.34.25,2.63,1.61,2.76,3.06.08,1.66,0,3.32-.21,4.97,0,1.78-1.53,2.38-3.14,2.51-.79.07-1.58.1-2.38.08Z"/></svg>